<svg id="visual" viewBox="0 0 960 300" width="960" height="300" xmlns="http://www.w3.org/2000/svg" xmlns:xlink="http://www.w3.org/1999/xlink" version="1.1"><rect x="0" y="0" width="960" height="300" fill="#36474e"></rect><path d="M0 224L107 209L213 201L320 210L427 253L533 190L640 212L747 204L853 203L960 195L960 301L853 301L747 301L640 301L533 301L427 301L320 301L213 301L107 301L0 301Z" fill="#7095a5"></path><path d="M0 261L107 234L213 251L320 212L427 253L533 245L640 229L747 228L853 216L960 223L960 301L853 301L747 301L640 301L533 301L427 301L320 301L213 301L107 301L0 301Z" fill="#638593"></path><path d="M0 251L107 259L213 248L320 250L427 261L533 219L640 232L747 244L853 245L960 242L960 301L853 301L747 301L640 301L533 301L427 301L320 301L213 301L107 301L0 301Z" fill="#567581"></path><path d="M0 231L107 259L213 272L320 238L427 231L533 258L640 260L747 274L853 271L960 267L960 301L853 301L747 301L640 301L533 301L427 301L320 301L213 301L107 301L0 301Z" fill="#4a656f"></path><path d="M0 257L107 267L213 282L320 247L427 276L533 259L640 274L747 257L853 246L960 264L960 301L853 301L747 301L640 301L533 301L427 301L320 301L213 301L107 301L0 301Z" fill="#3e565e"></path><path d="M0 279L107 262L213 276L320 281L427 276L533 259L640 272L747 268L853 279L960 287L960 301L853 301L747 301L640 301L533 301L427 301L320 301L213 301L107 301L0 301Z" fill="#32474e"></path><path d="M0 282L107 277L213 276L320 292L427 288L533 288L640 286L747 280L853 295L960 286L960 301L853 301L747 301L640 301L533 301L427 301L320 301L213 301L107 301L0 301Z" fill="#27383e"></path></svg>