<svg id="visual" viewBox="0 0 960 300" width="960" height="300" xmlns="http://www.w3.org/2000/svg" xmlns:xlink="http://www.w3.org/1999/xlink" version="1.1"><path d="M0 124L22.8 113.5C45.7 103 91.3 82 137 70.5C182.7 59 228.3 57 274 60.5C319.7 64 365.3 73 411.2 74C457 75 503 68 548.8 68C594.7 68 640.3 75 686 80C731.7 85 777.3 88 823 82.5C868.7 77 914.3 63 937.2 56L960 49L960 0L937.2 0C914.3 0 868.7 0 823 0C777.3 0 731.7 0 686 0C640.3 0 594.7 0 548.8 0C503 0 457 0 411.2 0C365.3 0 319.7 0 274 0C228.3 0 182.7 0 137 0C91.3 0 45.7 0 22.8 0L0 0Z" fill="#bbc7ce"></path><path d="M0 157L22.8 153.5C45.7 150 91.3 143 137 131C182.7 119 228.3 102 274 103C319.7 104 365.3 123 411.2 121C457 119 503 96 548.8 98C594.7 100 640.3 127 686 137.5C731.7 148 777.3 142 823 129.5C868.7 117 914.3 98 937.2 88.5L960 79L960 47L937.2 54C914.3 61 868.7 75 823 80.5C777.3 86 731.7 83 686 78C640.3 73 594.7 66 548.8 66C503 66 457 73 411.2 72C365.3 71 319.7 62 274 58.5C228.3 55 182.7 57 137 68.5C91.3 80 45.7 101 22.8 111.5L0 122Z" fill="#afbdc5"></path><path d="M0 205L22.8 207.5C45.7 210 91.3 215 137 215C182.7 215 228.3 210 274 212.5C319.7 215 365.3 225 411.2 219.5C457 214 503 193 548.8 188.5C594.7 184 640.3 196 686 202C731.7 208 777.3 208 823 208.5C868.7 209 914.3 210 937.2 210.5L960 211L960 77L937.2 86.5C914.3 96 868.7 115 823 127.5C777.3 140 731.7 146 686 135.5C640.3 125 594.7 98 548.8 96C503 94 457 117 411.2 119C365.3 121 319.7 102 274 101C228.3 100 182.7 117 137 129C91.3 141 45.7 148 22.8 151.5L0 155Z" fill="#a2b4bc"></path><path d="M0 238L22.8 243C45.7 248 91.3 258 137 260C182.7 262 228.3 256 274 254C319.7 252 365.3 254 411.2 251C457 248 503 240 548.8 239.5C594.7 239 640.3 246 686 247.5C731.7 249 777.3 245 823 243.5C868.7 242 914.3 243 937.2 243.5L960 244L960 209L937.2 208.5C914.3 208 868.7 207 823 206.5C777.3 206 731.7 206 686 200C640.3 194 594.7 182 548.8 186.5C503 191 457 212 411.2 217.5C365.3 223 319.7 213 274 210.5C228.3 208 182.7 213 137 213C91.3 213 45.7 208 22.8 205.5L0 203Z" fill="#93a6ad"></path><path d="M0 259L22.8 263C45.7 267 91.3 275 137 277C182.7 279 228.3 275 274 273C319.7 271 365.3 271 411.2 269.5C457 268 503 265 548.8 268C594.7 271 640.3 280 686 284.5C731.7 289 777.3 289 823 283C868.7 277 914.3 265 937.2 259L960 253L960 242L937.2 241.5C914.3 241 868.7 240 823 241.5C777.3 243 731.7 247 686 245.5C640.3 244 594.7 237 548.8 237.5C503 238 457 246 411.2 249C365.3 252 319.7 250 274 252C228.3 254 182.7 260 137 258C91.3 256 45.7 246 22.8 241L0 236Z" fill="#82939a"></path><path d="M0 301L22.8 301C45.7 301 91.3 301 137 301C182.7 301 228.3 301 274 301C319.7 301 365.3 301 411.2 301C457 301 503 301 548.8 301C594.7 301 640.3 301 686 301C731.7 301 777.3 301 823 301C868.7 301 914.3 301 937.2 301L960 301L960 251L937.2 257C914.3 263 868.7 275 823 281C777.3 287 731.7 287 686 282.5C640.3 278 594.7 269 548.8 266C503 263 457 266 411.2 267.5C365.3 269 319.7 269 274 271C228.3 273 182.7 277 137 275C91.3 273 45.7 265 22.8 261L0 257Z" fill="#718187"></path></svg>